<svg viewBox="0 0 114 45" fill="none" xmlns="http://www.w3.org/2000/svg">
<rect x="0.653809" y="0.875" width="7.38123" height="43.25" fill="#F1EFFF"/>
<rect x="0.653809" y="31.6053" width="7.38123" height="12.5197" fill="#7366FF"/>
<rect x="17.8767" y="0.875" width="7.38123" height="43.25" fill="#F1EFFF"/>
<rect x="17.8767" y="15.6711" width="7.38123" height="28.4539" fill="#7366FF"/>
<rect x="35.1001" y="0.875" width="7.38123" height="43.25" fill="#F1EFFF"/>
<rect x="35.1001" y="0.875" width="7.38123" height="43.25" fill="#F1EFFF"/>
<path d="M35.1001 19.0855H42.4813V44.125H35.1001V19.0855Z" fill="#7366FF"/>
<rect x="52.323" y="0.875" width="7.38123" height="43.25" fill="#F1EFFF"/>
<rect x="52.323" y="13.3947" width="7.38123" height="30.7303" fill="#7366FF"/>
<rect x="69.5464" y="0.875" width="7.38123" height="43.25" fill="#F1EFFF"/>
<rect x="69.5464" y="22.5" width="7.38123" height="21.625" fill="#7366FF"/>
<rect x="89.2283" y="0.875" width="7.38123" height="43.25" fill="#F1EFFF"/>
<rect x="89.2283" y="4.28949" width="7.38123" height="39.8355" fill="#7366FF"/>
<rect x="106.452" y="0.875" width="7.38123" height="43.25" fill="#F1EFFF"/>
<path d="M106.452 33.3125H113.833V44.125H106.452V33.3125Z" fill="#7366FF"/>
</svg>
