<svg width="46" height="45" viewBox="0 0 46 45" fill="none" xmlns="http://www.w3.org/2000/svg">
<rect x="0.427979" y="0.875" width="2.93001" height="43.25" fill="#F1EFFF"/>
<rect x="0.427979" y="31.6053" width="2.93001" height="12.5197" fill="#7366FF"/>
<rect x="7.26465" y="0.875" width="2.93001" height="43.25" fill="#F1EFFF"/>
<rect x="7.26465" y="15.6711" width="2.93001" height="28.4539" fill="#7366FF"/>
<rect x="14.1016" y="0.875" width="2.93001" height="43.25" fill="#F1EFFF"/>
<rect x="14.1016" y="0.875" width="2.93001" height="43.25" fill="#F1EFFF"/>
<path d="M14.1016 19.0855H17.0316V44.125H14.1016V19.0855Z" fill="#7366FF"/>
<rect x="20.9382" y="0.875" width="2.93001" height="43.25" fill="#F1EFFF"/>
<rect x="20.9382" y="13.3947" width="2.93001" height="30.7303" fill="#7366FF"/>
<rect x="27.7751" y="0.875" width="2.93001" height="43.25" fill="#F1EFFF"/>
<rect x="27.7751" y="22.5" width="2.93001" height="21.625" fill="#7366FF"/>
<rect x="35.5879" y="0.875" width="2.93001" height="43.25" fill="#F1EFFF"/>
<rect x="35.5879" y="4.28949" width="2.93001" height="39.8355" fill="#7366FF"/>
<rect x="42.4248" y="0.875" width="2.93001" height="43.25" fill="#F1EFFF"/>
<path d="M42.4248 33.3125H45.3548V44.125H42.4248V33.3125Z" fill="#7366FF"/>
</svg>
