<svg width="46" height="45" viewBox="0 0 46 45" fill="none" xmlns="http://www.w3.org/2000/svg">
<rect x="0.157471" y="0.802643" width="2.93001" height="43.25" fill="#FEEAEF"/>
<rect x="0.157471" y="31.5329" width="2.93001" height="12.5197" fill="#F73164"/>
<rect x="6.9939" y="0.802643" width="2.93001" height="43.25" fill="#FEEAEF"/>
<rect x="6.9939" y="24.7039" width="2.93001" height="19.3487" fill="#F73164"/>
<rect x="13.8306" y="0.802643" width="2.93001" height="43.25" fill="#F1EFFF"/>
<rect x="13.8306" y="0.802643" width="2.93001" height="43.25" fill="#FEEAEF"/>
<path d="M13.8306 19.0132H16.7606V44.0527H13.8306V19.0132Z" fill="#F73164"/>
<rect x="20.6672" y="0.802643" width="2.93001" height="43.25" fill="#FEEAEF"/>
<rect x="20.6672" y="13.3224" width="2.93001" height="30.7303" fill="#F73164"/>
<rect x="27.5039" y="0.802643" width="2.93001" height="43.25" fill="#FEEAEF"/>
<rect x="27.5039" y="22.4276" width="2.93001" height="21.625" fill="#F73164"/>
<rect x="35.3171" y="0.802643" width="2.93001" height="43.25" fill="#FEEAEF"/>
<rect x="35.3171" y="9.90787" width="2.93001" height="34.1447" fill="#F73164"/>
<rect x="42.1541" y="0.802643" width="2.93001" height="43.25" fill="#FEEAEF"/>
<path d="M42.1541 28.1184H45.0841V44.0526H42.1541V28.1184Z" fill="#F73164"/>
</svg>
