<svg width="46" height="45" viewBox="0 0 46 45" fill="none" xmlns="http://www.w3.org/2000/svg">
<rect x="0.338135" y="0.875" width="2.93001" height="43.25" fill="#FEEAEF"/>
<rect x="0.338135" y="31.6053" width="2.93001" height="12.5197" fill="#F73164"/>
<rect x="7.1748" y="0.875" width="2.93001" height="43.25" fill="#FEEAEF"/>
<rect x="7.1748" y="24.7763" width="2.93001" height="19.3487" fill="#F73164"/>
<rect x="14.0115" y="0.875" width="2.93001" height="43.25" fill="#F1EFFF"/>
<rect x="14.0115" y="0.875" width="2.93001" height="43.25" fill="#FEEAEF"/>
<path d="M14.0115 15.6711H16.9415V44.125H14.0115V15.6711Z" fill="#F73164"/>
<rect x="20.8481" y="0.875" width="2.93001" height="43.25" fill="#FEEAEF"/>
<rect x="20.8481" y="19.0855" width="2.93001" height="25.0395" fill="#F73164"/>
<rect x="27.6851" y="0.875" width="2.93001" height="43.25" fill="#FEEAEF"/>
<rect x="27.6851" y="13.3947" width="2.93001" height="30.7303" fill="#F73164"/>
<rect x="35.4983" y="0.875" width="2.93001" height="43.25" fill="#FEEAEF"/>
<rect x="35.4983" y="6.5658" width="2.93001" height="37.5592" fill="#F73164"/>
<rect x="42.3347" y="0.875" width="2.93001" height="43.25" fill="#FEEAEF"/>
<path d="M42.3347 28.1908H45.2647V44.125H42.3347V28.1908Z" fill="#F73164"/>
</svg>
