<svg width="20" height="22" viewBox="0 0 20 22" fill="none" xmlns="http://www.w3.org/2000/svg">
<path d="M4.04004 6H14.04" stroke="#44475C" stroke-width="2" stroke-miterlimit="10"/>
<path d="M4.04004 10H11.04" stroke="#44475C" stroke-width="2" stroke-miterlimit="10"/>
<path d="M17.1101 17.65C17.3909 17.1453 17.5387 16.5775 17.54 16C17.54 15.0717 17.1713 14.1815 16.5149 13.5251C15.8585 12.8687 14.9683 12.5 14.04 12.5C13.1118 12.5 12.2216 12.8687 11.5652 13.5251C10.9088 14.1815 10.54 15.0717 10.54 16C10.54 16.9283 10.9088 17.8185 11.5652 18.4749C12.2216 19.1312 13.1118 19.5 14.04 19.5C14.617 19.4941 15.1835 19.3464 15.6899 19.07L18.1301 21.5L19.54 20.09L17.1101 17.65ZM14.04 17.5C13.6422 17.5 13.2606 17.3419 12.9792 17.0606C12.6979 16.7793 12.54 16.3978 12.54 16C12.54 15.6022 12.6979 15.2206 12.9792 14.9393C13.2606 14.658 13.6422 14.5 14.04 14.5C14.4379 14.5 14.8193 14.658 15.1006 14.9393C15.3819 15.2206 15.54 15.6022 15.54 16C15.54 16.3978 15.3819 16.7793 15.1006 17.0606C14.8193 17.3419 14.4379 17.5 14.04 17.5Z" fill="#44475C"/>
<path d="M9.26001 21H3C2.46957 21 1.96077 20.7893 1.58569 20.4142C1.21062 20.0391 1 19.5304 1 19V3C1 2.46957 1.21062 1.96086 1.58569 1.58578C1.96077 1.21071 2.46957 1 3 1H15C15.5304 1 16.0392 1.21071 16.4143 1.58578C16.7894 1.96086 17 2.46957 17 3V10.27" stroke="#44475C" stroke-width="2" stroke-miterlimit="10"/>
</svg>
