<svg width="20" height="22" viewBox="0 0 20 22" fill="none" xmlns="http://www.w3.org/2000/svg">
<path d="M4.04004 6H14.04" stroke="#44475C" stroke-width="2" stroke-miterlimit="10"/>
<path d="M4.04004 10H11.04" stroke="#44475C" stroke-width="2" stroke-miterlimit="10"/>
<path d="M9.26001 21H3C2.46957 21 1.96077 20.7893 1.58569 20.4142C1.21062 20.0391 1 19.5304 1 19V3C1 2.46957 1.21062 1.96086 1.58569 1.58578C1.96077 1.21071 2.46957 1 3 1H15C15.5304 1 16.0392 1.21071 16.4143 1.58578C16.7894 1.96086 17 2.46957 17 3V10.27" stroke="#44475C" stroke-width="2" stroke-miterlimit="10"/>
<path d="M17.7423 17.4949L14.0358 13.7883C14.0101 13.7627 13.978 13.7445 13.9429 13.7357L11.3234 13.0808C11.1769 13.0442 11.0442 13.1769 11.0808 13.3234L11.7357 15.9429C11.7445 15.978 11.7627 16.0101 11.7883 16.0358L15.4949 19.7423M17.7423 17.4949L15.4949 19.7423M17.7423 17.4949C18.4915 17.9943 19.6901 19.2929 18.4915 20.4915C17.2929 21.6901 15.9943 20.4915 15.4949 19.7423" stroke="#44475C" stroke-width="2"/>
</svg>
