<svg width="27" height="29" viewBox="0 0 27 29" fill="none" xmlns="http://www.w3.org/2000/svg">
<path d="M11.25 18.125L11.25 14.5" stroke="#33363F" stroke-width="2" stroke-linecap="round"/>
<path d="M15.75 18.125L15.75 14.5" stroke="#33363F" stroke-width="2" stroke-linecap="round"/>
<path d="M3.375 8.45825H23.625V8.45825C22.3394 8.45825 21.6965 8.45825 21.2218 8.74279C20.9397 8.91188 20.7036 9.14794 20.5345 9.43005C20.25 9.90478 20.25 10.5476 20.25 11.8333V20.1666C20.25 22.0522 20.25 22.995 19.6642 23.5808C19.0784 24.1666 18.1356 24.1666 16.25 24.1666H10.75C8.86438 24.1666 7.92157 24.1666 7.33579 23.5808C6.75 22.995 6.75 22.0522 6.75 20.1666V11.8333C6.75 10.5476 6.75 9.90478 6.46546 9.43005C6.29637 9.14794 6.06031 8.91188 5.77821 8.74279C5.30347 8.45825 4.66065 8.45825 3.375 8.45825V8.45825Z" stroke="#33363F" stroke-width="2" stroke-linecap="round"/>
<path d="M11.3267 4.0728C11.4549 3.94433 11.7373 3.83081 12.1303 3.74985C12.5232 3.66889 13.0047 3.625 13.5 3.625C13.9953 3.625 14.4768 3.66889 14.8697 3.74985C15.2627 3.83081 15.5451 3.94433 15.6733 4.0728" stroke="#33363F" stroke-width="2" stroke-linecap="round"/>
</svg>
