<svg width="21" height="22" viewBox="0 0 21 22" fill="none" xmlns="http://www.w3.org/2000/svg">
<path d="M19.9669 1L13.9669 7" stroke="#44475C" stroke-width="2" stroke-miterlimit="10"/>
<path d="M12.9669 2V8H18.9669" stroke="#44475C" stroke-width="2" stroke-miterlimit="10"/>
<path d="M8.27695 12.69C8.96979 13.4109 9.71515 14.0794 10.5069 14.69C10.8563 14.9581 11.2799 15.1124 11.7198 15.1321C12.1598 15.1517 12.5952 15.0358 12.9671 14.8L13.4969 14.47C13.8795 14.2084 14.3351 14.0743 14.7984 14.0869C15.2617 14.0995 15.7091 14.258 16.077 14.54L18.557 16.54C18.6768 16.634 18.7754 16.7524 18.8463 16.8873C18.9171 17.0222 18.9587 17.1705 18.9681 17.3225C18.9776 17.4746 18.9546 17.627 18.901 17.7696C18.8474 17.9122 18.7644 18.0418 18.6571 18.15V18.15C17.7019 19.1077 16.4712 19.743 15.1373 19.9671C13.8034 20.1912 12.4329 19.9929 11.2171 19.4C9.15464 18.3845 7.27555 17.0327 5.65708 15.4C4.02401 13.7856 2.67207 11.9098 1.65708 9.84995C1.06505 8.63303 0.866285 7.26209 1.08847 5.92716C1.31066 4.59224 1.94278 3.35954 2.89707 2.4V2.4C3.00457 2.29215 3.13352 2.20822 3.27573 2.15379C3.41794 2.09935 3.57023 2.07565 3.72226 2.08414C3.8743 2.09264 4.02279 2.13315 4.15805 2.2031C4.29331 2.27305 4.41212 2.37081 4.50693 2.48997L6.50693 4.97996C6.78348 5.33023 6.9455 5.75727 6.97055 6.20286C6.99561 6.64844 6.88261 7.09094 6.64707 7.47001L6.25693 8.07999C6.02243 8.45189 5.90655 8.88624 5.92441 9.32554C5.94227 9.76483 6.09311 10.1883 6.35703 10.54C6.95479 11.3305 7.60629 12.079 8.30698 12.78L8.27695 12.69Z" stroke="#44475C" stroke-width="2" stroke-linejoin="round"/>
</svg>
